<svg xmlns="http://www.w3.org/2000/svg" width="39.999" height="39.646" viewBox="0 0 39.999 39.646">
  <g id="ga_icon_02" transform="translate(-557.001 -418.13)">
    <g id="Group_568" data-name="Group 568" transform="translate(78 201.248)">
      <path id="Subtraction_11" data-name="Subtraction 11"
        d="M-9574.979,20357.154H-9588.5v-3.342h13.526V20337.5L-9585,20327.09l-10.025,10.414v8.619h-3.347v-5.15l-4.221,4.395-2.407-2.32,17.6-18.271a3.335,3.335,0,0,1,2.407-1.023,3.346,3.346,0,0,1,2.406,1.023l17.588,18.271-2.417,2.32-4.226-4.395v12.84A3.344,3.344,0,0,1-9574.979,20357.154Z"
        transform="translate(10084 -20106.871)" fill="#114661" />
    </g>
    <path id="smartphone"
      d="M167.791,0H161.3A1.3,1.3,0,0,0,160,1.3V14.284a1.3,1.3,0,0,0,1.3,1.3h6.493a1.3,1.3,0,0,0,1.3-1.3V1.3A1.3,1.3,0,0,0,167.791,0Zm0,1.3v.649H161.3V1.3ZM161.3,12.985V2.6h6.493V12.985Zm0,.649h2.6v.649h-2.6Zm6.493.649h-2.6v-.649h2.6l0,.649Z"
      transform="translate(403.105 442.193)" fill="#f29400" />
    <path id="Path_1982" data-name="Path 1982"
      d="M227.578,360.724l.632.631-1.263,1.263-.631-.632a3.582,3.582,0,0,0-5.058,0l-.637.632-1.263-1.263.632-.631a5.37,5.37,0,0,1,7.589,0Zm-3.794-5.147a8.863,8.863,0,0,0-6.321,2.621l-.631.631,1.263,1.263.632-.631a7.15,7.15,0,0,1,10.115,0l.631.631,1.263-1.263-.631-.631A8.863,8.863,0,0,0,223.784,355.577Zm-8.852.09-.632.631,1.263,1.263.631-.631a10.739,10.739,0,0,1,15.178,0l.632.631,1.263-1.263-.631-.631a12.52,12.52,0,0,0-17.7,0Z"
      transform="translate(670.971 27.805) rotate(45)" fill="#f29400" />
  </g>
</svg>